HIERARCHY
ROOT Model_Hips
{
	OFFSET 0.000000 96.915077 0.000000
	CHANNELS 6 Xposition Yposition Zposition Xrotation Yrotation Zrotation
	JOINT Model_Spine
	{
		OFFSET 0.000000 11.137703 -1.289900
		CHANNELS 3 Xrotation Yrotation Zrotation
		JOINT Model_Spine1
		{
			OFFSET 0.000000 12.993942 -1.504922
			CHANNELS 3 Xrotation Yrotation Zrotation
			JOINT Model_Spine2
			{
				OFFSET 0.000000 14.850220 -1.719911
				CHANNELS 3 Xrotation Yrotation Zrotation
				JOINT Model_Neck
				{
					OFFSET 0.000000 16.706543 -1.934903
					CHANNELS 3 Xrotation Yrotation Zrotation
					JOINT Model_Head
					{
						OFFSET 0.000000 10.471298 2.002100
						CHANNELS 3 Xrotation Yrotation Zrotation
						JOINT Model_HeadTop_End
						{
							OFFSET 0.000000 20.842606 3.985100
							CHANNELS 3 Xrotation Yrotation Zrotation
							End Site
							{
								OFFSET 0.000000 21.220154 0.000000
							}
						}
					}
				}
				JOINT Model_LeftShoulder
				{
					OFFSET 7.008500 14.768600 -1.919946
					CHANNELS 3 Xrotation Yrotation Zrotation
					JOINT Model_LeftArm
					{
						OFFSET 14.126271 -3.718048 0.029937
						CHANNELS 3 Xrotation Yrotation Zrotation
						JOINT Model_LeftForeArm
						{
							OFFSET 28.282801 0.000000 0.000000
							CHANNELS 3 Xrotation Yrotation Zrotation
							JOINT Model_LeftHand
							{
								OFFSET 26.204689 0.000000 0.000000
								CHANNELS 3 Xrotation Yrotation Zrotation
								End Site
								{
									OFFSET 26.204704 0.000000 0.000000
								}
							}
						}
					}
				}
				JOINT Model_RightShoulder
				{
					OFFSET -7.008500 14.768555 -1.949840
					CHANNELS 3 Xrotation Yrotation Zrotation
					JOINT Model_RightArm
					{
						OFFSET -14.126281 -3.718018 -0.029932
						CHANNELS 3 Xrotation Yrotation Zrotation
						JOINT Model_RightForeArm
						{
							OFFSET -28.283798 0.000000 -0.000001
							CHANNELS 3 Xrotation Yrotation Zrotation
							JOINT Model_RightHand
							{
								OFFSET -26.204193 0.000000 -0.000001
								CHANNELS 3 Xrotation Yrotation Zrotation
								End Site
								{
									OFFSET -26.204208 0.000000 -0.000001
								}
							}
						}
					}
				}
			}
		}
	}
	JOINT Model_LeftUpLeg
	{
		OFFSET 8.327700 -6.193199 -0.402800
		CHANNELS 3 Xrotation Yrotation Zrotation
		JOINT Model_LeftLeg
		{
			OFFSET 0.735802 -42.108742 -0.610721
			CHANNELS 3 Xrotation Yrotation Zrotation
			JOINT Model_LeftFoot
			{
				OFFSET -0.735806 -36.833748 -0.172876
				CHANNELS 3 Xrotation Yrotation Zrotation
				JOINT Model_LeftToeBase
				{
					OFFSET -0.565857 -11.977769 16.297714
					CHANNELS 3 Xrotation Yrotation Zrotation
					JOINT Model_LeftToe_End
					{
						OFFSET -0.111712 -0.312793 7.857784
						CHANNELS 3 Xrotation Yrotation Zrotation
						End Site
						{
							OFFSET -0.111712 -0.312793 7.857784
						}
					}
				}
			}
		}
	}
	JOINT Model_RightUpLeg
	{
		OFFSET -8.327700 -6.193199 -0.516500
		CHANNELS 3 Xrotation Yrotation Zrotation
		JOINT Model_RightLeg
		{
			OFFSET -0.735785 -42.108738 -0.434061
			CHANNELS 3 Xrotation Yrotation Zrotation
			JOINT Model_RightFoot
			{
				OFFSET 0.735776 -36.833748 -0.021630
				CHANNELS 3 Xrotation Yrotation Zrotation
				JOINT Model_RightToeBase
				{
					OFFSET 0.565817 -11.977745 15.903093
					CHANNELS 3 Xrotation Yrotation Zrotation
					JOINT Model_RightToe_End
					{
						OFFSET 0.111702 -0.312791 7.811342
						CHANNELS 3 Xrotation Yrotation Zrotation
						End Site
						{
							OFFSET 0.111702 -0.312791 7.811342
						}
					}
				}
			}
		}
	}
}
MOTION
Frames: 11
Frame Time: 0.033333
0.067012 96.809799 0.241469 -3.761525 6.507590 -2.672759 3.304824 1.531389 2.414711 1.151889 0.339458 1.552800 1.126013 0.361545 1.555889 5.626306 -0.078965 0.454683 5.621572 -0.099933 0.491952 -0.000001 -0.000000 -0.000000 1.044408 -17.441006 -12.319355 3.916221 -19.989293 -69.765362 0.000003 -1.459362 0.000000 -0.000001 -0.000000 -0.000001 1.203168 15.343660 14.705978 13.158905 27.555123 58.785116 0.000003 6.693773 0.000011 -0.000004 0.000001 -0.000000 -9.633398 14.978328 10.049574 13.556938 1.944032 4.204728 -1.144330 0.719979 -7.535590 -4.928527 0.000009 0.000001 0.000000 -0.000003 -0.000000 2.864881 -10.297447 3.945343 6.754900 -9.754513 -3.280461 -5.355289 -1.720565 3.127791 -7.293303 -0.000009 0.000001 0.000000 -0.000001 0.000000 
0.636280 96.665237 -0.117624 -3.552734 4.288335 -2.858205 3.422550 1.307065 2.237603 1.248270 0.185020 1.550222 1.218455 0.205207 1.594304 5.508172 -0.720054 0.788084 5.519505 -0.724455 0.849740 -0.000001 -0.000001 0.000000 1.104464 -17.506265 -12.071440 4.627221 -20.040356 -69.281040 -0.000022 -1.749955 -0.000001 -0.000001 0.000000 0.000001 1.174793 15.442583 14.847689 11.319334 25.711387 58.776360 -0.000000 7.611357 -0.000001 -0.000003 -0.000000 -0.000000 -10.583881 14.640075 10.027559 15.776588 3.945757 4.189346 -2.431132 1.277837 -7.475144 -4.928532 0.000019 0.000003 0.000001 -0.000002 -0.000000 0.543279 -10.376536 3.076988 10.135354 -7.571558 -3.113195 -6.541577 -1.772692 3.424417 -7.293307 0.000007 -0.000000 -0.000000 0.000001 0.000000 
2.021511 96.379646 -0.866700 -3.298205 2.193899 -3.021833 3.553457 1.128613 1.979567 1.348175 0.068653 1.433333 1.314377 0.095191 1.599576 5.686848 -1.976230 1.355243 5.741420 -1.937292 1.479675 0.000001 0.000000 -0.000000 1.166548 -17.531055 -11.830017 5.429766 -19.691335 -68.640123 0.000015 -2.201950 -0.000002 0.000000 -0.000000 -0.000000 1.143535 15.558252 15.002370 8.687178 21.993224 59.103649 0.000006 8.636638 0.000002 0.000004 -0.000000 -0.000000 -12.267395 13.452280 9.288373 19.425164 5.955226 4.287391 -4.372775 2.694641 -7.029514 -4.928528 0.000012 0.000002 0.000000 -0.000004 -0.000000 -4.069311 -3.759236 0.318090 17.660853 -9.933375 0.368141 -8.123456 -5.273684 3.726069 -7.564930 -0.000006 -0.000001 0.000000 0.000001 0.000000 
3.857188 96.190186 -1.478177 -3.021629 0.166991 -3.178644 3.681235 0.962822 1.983826 1.455359 -0.072595 1.226836 1.418154 -0.030078 1.582649 6.160512 -3.580040 2.013637 6.279042 -3.480276 2.223097 0.000002 0.000000 0.000000 1.212940 -17.493494 -11.641817 6.257668 -19.002247 -67.891343 -0.000009 -2.747472 0.000007 -0.000005 -0.000000 -0.000000 1.124595 15.615544 15.095937 5.785172 16.907042 59.504874 0.000002 9.923220 0.000010 0.000000 -0.000000 -0.000000 -13.252321 11.734427 7.846946 21.909495 8.069299 4.486027 -5.826454 4.719798 -6.469972 -4.928532 0.000005 -0.000002 0.000000 -0.000004 -0.000000 -7.574593 -0.466955 -1.434028 24.940736 -9.935414 2.169524 -9.105334 -11.807796 3.815842 -7.078334 0.000003 0.000001 -0.000000 -0.000001 0.000000 
5.786655 96.198082 -2.044396 -2.746843 -1.852813 -3.335645 3.780143 0.792788 2.379497 1.557376 -0.268601 0.991398 1.517846 -0.200957 1.591572 6.793594 -5.303258 2.650352 6.989247 -5.134640 2.950687 0.000000 -0.000000 -0.000000 1.237144 -17.412152 -11.542096 7.128425 -18.215626 -67.047480 -0.000024 -3.327516 -0.000026 -0.000002 0.000000 0.000000 1.132972 15.559973 15.057333 3.321057 11.321114 59.814173 0.000009 11.639883 -0.000001 -0.000001 0.000001 0.000000 -13.589659 10.910730 6.305173 22.558759 8.946213 4.747386 -6.334820 7.146555 -5.599880 -4.928523 0.000015 0.000002 0.000001 -0.000004 -0.000000 -8.617380 -0.783708 -3.031475 27.221430 -9.977835 3.732279 -9.208128 -16.745886 2.146974 -7.332947 -0.000005 0.000002 0.000000 -0.000001 -0.000000 
7.388204 96.252579 -2.552469 -2.497971 -3.926193 -3.477873 3.808454 0.595684 2.886411 1.600774 -0.499477 0.733095 1.559543 -0.400232 1.623353 7.422859 -6.902576 3.135597 7.698151 -6.667419 3.516441 0.000001 0.000000 0.000000 1.239876 -17.336318 -11.531151 8.057059 -17.529925 -66.131674 -0.000003 -3.891780 -0.000001 -0.000003 0.000000 -0.000000 1.166182 15.412477 14.896079 1.806853 5.889091 60.064089 0.000008 13.853278 -0.000018 -0.000001 -0.000001 -0.000000 -13.808364 11.118111 5.192930 22.544033 8.453586 5.032378 -6.445944 9.854896 -4.691828 -4.928531 0.000014 -0.000001 -0.000000 -0.000002 -0.000000 -8.872937 -2.274220 -4.570502 28.017004 -9.937754 6.124514 -9.329697 -20.967262 -0.035450 -7.751736 -0.000014 -0.000002 -0.000000 -0.000002 -0.000000 
8.520121 96.202728 -2.926146 -2.299291 -6.113117 -3.603955 3.736423 0.338331 3.114227 1.544635 -0.747963 0.418479 1.501419 -0.613616 1.635946 7.929578 -8.116275 3.434589 8.272482 -7.827556 3.869928 0.000002 0.000001 -0.000000 1.229283 -17.287074 -11.576589 8.947452 -16.948332 -65.225800 0.000009 -4.436558 -0.000005 0.000001 0.000001 0.000000 1.206306 15.231592 14.697087 1.228543 0.602293 60.367172 -0.000005 16.443127 -0.000003 -0.000000 -0.000001 -0.000000 -14.236523 11.306026 4.501044 23.073339 7.837485 5.318901 -6.763029 12.723242 -4.170095 -4.928531 0.000005 0.000001 0.000001 -0.000004 -0.000000 -8.636178 -6.851337 -5.402803 28.763771 -8.551407 9.595828 -11.402149 -23.933919 -3.424020 -8.895935 -0.000038 -0.000004 0.000000 -0.000000 0.000000 
9.409086 96.086746 -3.189456 -2.175278 -8.472996 -3.746597 3.570545 0.106045 3.140330 1.400553 -0.960614 0.040668 1.355671 -0.788370 1.612630 8.212799 -8.747858 3.560391 8.597545 -8.426460 4.014195 0.000000 0.000000 -0.000001 1.212565 -17.223116 -11.648071 9.689875 -16.386189 -64.413998 0.000005 -5.068103 -0.000004 -0.000003 0.000000 0.000001 1.240036 15.055147 14.527315 1.195200 -4.781319 60.760482 0.000012 19.162459 -0.000003 -0.000001 -0.000000 -0.000000 -14.744053 11.310662 4.048802 24.011477 7.561363 5.561995 -7.271562 15.565711 -3.913380 -4.928529 0.000005 0.000001 0.000000 -0.000003 -0.000000 -8.129559 -10.166404 -5.172930 30.215165 -9.739134 10.927375 -12.747209 -27.004842 -3.107015 -10.134678 -0.000002 -0.000003 0.000001 0.000001 -0.000000 
10.083191 95.954514 -3.434937 -2.151616 -11.065658 -3.882046 3.367759 0.017403 3.124788 1.223610 -1.062685 -0.367463 1.177894 -0.851429 1.576312 8.337645 -9.097941 3.626482 8.752450 -8.753150 4.083187 0.000001 0.000002 0.000001 1.191191 -17.079916 -11.739370 10.322869 -15.772341 -63.710502 -0.000005 -5.933324 -0.000017 0.000002 0.000000 0.000000 1.267067 14.910527 14.389510 1.310219 -10.225837 61.207798 0.000020 21.749826 -0.000003 -0.000001 -0.000001 0.000000 -15.201426 11.509747 3.856861 24.985238 7.475250 5.713533 -7.762659 18.193759 -3.805306 -4.928528 0.000016 -0.000002 0.000000 -0.000002 -0.000000 -7.957109 -11.684012 -4.927680 32.154529 -9.797009 10.581703 -12.386200 -30.034527 0.604813 -11.069699 0.000014 0.000005 0.000000 0.000001 0.000000 
10.538937 95.828865 -3.725790 -2.255052 -13.949182 -4.009870 3.204798 -0.040336 3.083401 1.073459 -1.145396 -0.765617 1.027222 -0.895606 1.554652 8.358183 -9.211022 3.670485 8.793732 -8.849467 4.120070 -0.000001 0.000001 -0.000000 1.167218 -16.846904 -11.843147 11.001280 -15.085323 -63.069659 -0.000003 -7.019548 0.000002 -0.000001 0.000000 0.000000 1.289592 14.824507 14.273178 1.368507 -15.467981 61.702180 0.000006 23.931876 -0.000011 0.000002 -0.000000 -0.000000 -15.546766 12.034463 3.968003 25.841999 7.654616 5.722962 -8.137996 20.429673 -3.829951 -4.928521 -0.000002 -0.000001 0.000000 -0.000002 -0.000000 -7.662021 -13.562115 -5.164690 32.910262 -9.779929 10.408186 -11.527440 -30.136495 4.034186 -12.341237 0.000007 0.000004 0.000001 -0.000001 0.000000 
10.741362 95.777039 -4.135814 -2.684899 -17.592949 -4.148779 3.075376 -0.223044 3.100556 0.944969 -1.332227 -1.160810 0.898283 -1.044143 1.526947 8.364763 -9.112026 3.678967 8.810968 -8.739538 4.112353 -0.000001 0.000002 -0.000001 1.149413 -16.596682 -11.922193 11.787982 -14.378419 -62.441262 -0.000011 -8.080221 -0.000018 -0.000002 0.000000 -0.000000 1.303178 14.784462 14.202347 1.356739 -20.285705 62.299815 -0.000017 25.395028 0.000016 0.000000 0.000001 0.000000 -15.387018 13.177301 4.475160 26.148905 8.403557 5.459451 -8.175331 22.095158 -4.018149 -4.928535 -0.000004 -0.000000 -0.000000 -0.000004 -0.000000 -6.455300 -16.187413 -5.305560 32.160731 -9.896907 10.290928 -11.946630 -30.083592 4.570317 -13.160032 -0.000025 0.000000 0.000000 -0.000000 0.000000 
